<?xml version="1.0" encoding="UTF-8" standalone="no"?>
<!-- Created with Inkscape (http://www.inkscape.org/) -->

<svg
   xmlns:dc="http://purl.org/dc/elements/1.1/"
   xmlns:cc="http://creativecommons.org/ns#"
   xmlns:rdf="http://www.w3.org/1999/02/22-rdf-syntax-ns#"
   xmlns:svg="http://www.w3.org/2000/svg"
   xmlns="http://www.w3.org/2000/svg"
   xmlns:xlink="http://www.w3.org/1999/xlink"
   xmlns:sodipodi="http://sodipodi.sourceforge.net/DTD/sodipodi-0.dtd"
   xmlns:inkscape="http://www.inkscape.org/namespaces/inkscape"
   width="297mm"
   height="210mm"
   viewBox="0 0 297 210"
   version="1.1"
   id="svg8"
   inkscape:version="0.92.2 (5c3e80d, 2017-08-06)"
   sodipodi:docname="Logo.svg"
   inkscape:export-filename="/home/rescobar/Documentos/Proyecto/carneaerp/src/Carneaerp/imagenes/imagenes/Logo.ico.png"
   inkscape:export-xdpi="12.541268"
   inkscape:export-ydpi="12.541268">
  <defs
     id="defs2">
    <inkscape:perspective
       sodipodi:type="inkscape:persp3d"
       inkscape:vp_x="0 : 105 : 1"
       inkscape:vp_y="0 : 1000 : 0"
       inkscape:vp_z="297 : 105 : 1"
       inkscape:persp3d-origin="148.5 : 70 : 1"
       id="perspective3830" />
    <linearGradient
       inkscape:collect="always"
       id="linearGradient3730">
      <stop
         style="stop-color:#0000ff;stop-opacity:1"
         offset="0"
         id="stop3726" />
      <stop
         style="stop-color:#000080;stop-opacity:1"
         offset="1"
         id="stop3728" />
    </linearGradient>
    <linearGradient
       inkscape:collect="always"
       xlink:href="#linearGradient3730"
       id="linearGradient3732"
       x1="142.62871"
       y1="201.28986"
       x2="312.0036"
       y2="201.71306"
       gradientUnits="userSpaceOnUse" />
    <linearGradient
       inkscape:collect="always"
       xlink:href="#linearGradient3730"
       id="linearGradient3808"
       gradientUnits="userSpaceOnUse"
       x1="142.62871"
       y1="201.28986"
       x2="312.0036"
       y2="201.71306" />
    <linearGradient
       inkscape:collect="always"
       xlink:href="#linearGradient3730"
       id="linearGradient3810"
       gradientUnits="userSpaceOnUse"
       x1="142.62871"
       y1="201.28986"
       x2="312.0036"
       y2="201.71306" />
    <linearGradient
       inkscape:collect="always"
       xlink:href="#linearGradient3730"
       id="linearGradient3812"
       gradientUnits="userSpaceOnUse"
       x1="142.62871"
       y1="201.28986"
       x2="312.0036"
       y2="201.71306" />
    <linearGradient
       inkscape:collect="always"
       xlink:href="#linearGradient3730"
       id="linearGradient3814"
       gradientUnits="userSpaceOnUse"
       x1="142.62871"
       y1="201.28986"
       x2="312.0036"
       y2="201.71306" />
    <linearGradient
       inkscape:collect="always"
       xlink:href="#linearGradient3730"
       id="linearGradient3816"
       gradientUnits="userSpaceOnUse"
       x1="142.62871"
       y1="201.28986"
       x2="312.0036"
       y2="201.71306" />
    <linearGradient
       inkscape:collect="always"
       xlink:href="#linearGradient3730"
       id="linearGradient3818"
       gradientUnits="userSpaceOnUse"
       x1="142.62871"
       y1="201.28986"
       x2="312.0036"
       y2="201.71306" />
    <linearGradient
       inkscape:collect="always"
       xlink:href="#linearGradient3730"
       id="linearGradient3820"
       gradientUnits="userSpaceOnUse"
       x1="142.62871"
       y1="201.28986"
       x2="312.0036"
       y2="201.71306" />
    <linearGradient
       inkscape:collect="always"
       xlink:href="#linearGradient3730"
       id="linearGradient3822"
       gradientUnits="userSpaceOnUse"
       x1="138.62811"
       y1="189.26668"
       x2="135.95711"
       y2="187.53819" />
  </defs>
  <sodipodi:namedview
     id="base"
     pagecolor="#ffffff"
     bordercolor="#666666"
     borderopacity="1.0"
     inkscape:pageopacity="0.0"
     inkscape:pageshadow="2"
     inkscape:zoom="0.57875767"
     inkscape:cx="551.84105"
     inkscape:cy="466.94505"
     inkscape:document-units="mm"
     inkscape:current-layer="layer1"
     showgrid="false"
     inkscape:window-width="1537"
     inkscape:window-height="845"
     inkscape:window-x="63"
     inkscape:window-y="27"
     inkscape:window-maximized="1" />
  <metadata
     id="metadata5">
    <rdf:RDF>
      <cc:Work
         rdf:about="">
        <dc:format>image/svg+xml</dc:format>
        <dc:type
           rdf:resource="http://purl.org/dc/dcmitype/StillImage" />
        <dc:title></dc:title>
      </cc:Work>
    </rdf:RDF>
  </metadata>
  <g
     inkscape:label="Capa 1"
     inkscape:groupmode="layer"
     id="layer1"
     transform="translate(0,-87)">
    <flowRoot
       xml:space="preserve"
       id="flowRoot3699"
       style="font-style:normal;font-variant:normal;font-weight:normal;font-stretch:normal;font-size:40.00008392px;line-height:125%;font-family:Dyuthi;-inkscape-font-specification:'Dyuthi, Normal';font-variant-ligatures:normal;font-variant-caps:normal;font-variant-numeric:normal;font-feature-settings:normal;text-align:start;letter-spacing:0px;word-spacing:0px;writing-mode:lr-tb;text-anchor:start;fill:#000080;fill-opacity:1;stroke:none;stroke-width:1px;stroke-linecap:butt;stroke-linejoin:miter;stroke-opacity:1;"
       transform="matrix(1.0269345,0,0,2.9093234,-89.886001,-418.31173)"><flowRegion
         id="flowRegion3701"
         style="font-style:normal;font-variant:normal;font-weight:normal;font-stretch:normal;font-size:40.00008392px;font-family:Dyuthi;-inkscape-font-specification:'Dyuthi, Normal';font-variant-ligatures:normal;font-variant-caps:normal;font-variant-numeric:normal;font-feature-settings:normal;text-align:start;writing-mode:lr-tb;text-anchor:start;fill:#000080;fill-opacity:1;"><rect
           id="rect3703"
           width="803.44507"
           height="317.92236"
           x="138.22711"
           y="182.04584"
           style="font-style:normal;font-variant:normal;font-weight:normal;font-stretch:normal;font-size:40.00008392px;font-family:Dyuthi;-inkscape-font-specification:'Dyuthi, Normal';font-variant-ligatures:normal;font-variant-caps:normal;font-variant-numeric:normal;font-feature-settings:normal;text-align:start;writing-mode:lr-tb;text-anchor:start;fill:#000080;fill-opacity:1;" /></flowRegion><flowPara
         id="flowPara3705"
         style="fill:#000080;fill-opacity:1;">CARNEA ERP</flowPara></flowRoot>    <g
       aria-label="CARNEA ERP"
       transform="matrix(1.0269345,0,0,2.9093234,-92.531836,-420.95758)"
       style="font-style:normal;font-variant:normal;font-weight:normal;font-stretch:normal;font-size:40.00008392px;line-height:125%;font-family:Dyuthi;-inkscape-font-specification:'Dyuthi, Normal';font-variant-ligatures:normal;font-variant-caps:normal;font-variant-numeric:normal;font-feature-settings:normal;text-align:start;letter-spacing:0px;word-spacing:0px;writing-mode:lr-tb;text-anchor:start;fill:url(#linearGradient3822);fill-opacity:1;stroke:none;stroke-width:1px;stroke-linecap:butt;stroke-linejoin:miter;stroke-opacity:1"
       id="flowRoot3783">
      <path
         d="m 149.63284,206.69341 q 1.48437,0 2.38281,-0.23437 l 1.21094,-0.50782 q 0.0781,0 0.85938,-0.23437 0.78125,-0.23438 0.85938,-0.23438 1.99219,0 2.38282,0.42969 0.74218,0.70313 0.74218,1.95313 0,1.09375 -1.28906,1.67969 -1.64063,0.66406 -3.04688,1.01563 -1.44532,0.3125 -3.32032,0.3125 -4.57032,0 -7.22658,-3.2422 -2.34375,-2.85157 -2.34375,-7.10939 0,-4.33594 2.42188,-7.38282 2.46094,-3.00782 7.3047,-3.00782 2.10938,0 3.125,0.23437 1.48438,0.3125 2.81251,0.97657 0.625,0.3125 0.9375,1.01562 0.35157,0.66407 0.35157,1.32813 0,1.17188 -0.42969,1.60157 -0.50782,0.46875 -1.71876,0.46875 -0.11718,0 -0.54687,-0.19531 -0.42969,-0.23438 -0.50782,-0.23438 -0.0391,-0.0391 -2.30469,-0.74219 -1.75781,-0.54688 -2.89063,-0.50781 -2.26563,0.0781 -3.59376,1.99219 -1.21094,1.75781 -1.21094,4.4922 0,2.5 1.25001,4.21875 1.40625,1.91407 3.78907,1.91407 z"
         style="fill:#0000ff;fill-opacity:1"
         id="path3785"
         inkscape:connector-curvature="0" />
      <path
         d="m 173.2657,192.47463 6.01564,15.46878 q 0.15625,0.62501 0.15625,0.89844 0,0.82032 -0.58594,1.28907 -0.58594,0.46875 -1.95313,0.46875 -1.5625,0 -2.22657,-1.36719 -0.15625,-0.27344 -0.78125,-2.53907 -0.58594,-2.30469 -0.85938,-2.92969 l -5.82032,-0.0391 q -0.0391,0.15626 -0.27344,1.32813 -0.23438,1.13282 -0.50781,2.34376 -0.27344,1.17188 -0.50782,1.71875 -0.50781,1.52344 -2.10938,1.52344 -1.5625,0 -2.1875,-0.50781 -0.625,-0.50782 -0.625,-1.32813 0,-0.35156 0.11719,-0.70313 l 5.54688,-15.62503 q 1.01563,-2.69532 3.28126,-2.69532 2.34375,0 3.32032,2.69532 z m -5.70314,9.57033 h 5.03907 l -2.5,-6.87501 z"
         style="fill:#0000ff;fill-opacity:1"
         id="path3787"
         inkscape:connector-curvature="0" />
      <path
         d="m 182.09384,191.34182 q 0,-0.54688 0.46875,-1.21094 0.54688,-0.625 1.09375,-0.625 h 7.73439 q 2.3047,0 4.02345,1.91406 1.67969,1.99219 1.67969,4.29689 0,1.79687 -1.09375,3.24219 -1.21094,1.52344 -3.67188,2.38282 l 4.64844,4.68751 q 0.74219,0.85937 0.74219,1.83594 0,0.9375 -0.625,1.5625 -0.23437,0.3125 -0.78125,0.78125 -0.50781,0.46875 -0.89844,0.46875 -1.32813,0 -2.42188,-1.32812 l -6.17189,-7.57814 v 6.21095 q 0,1.13281 -0.74219,1.95313 -0.70312,0.70312 -1.71875,0.70312 -0.97657,0 -1.60157,-0.70312 -0.66406,-0.62501 -0.66406,-1.95313 z m 4.72657,2.22656 v 4.8047 h 3.47657 q 1.44532,0 1.99219,-0.70313 0.58594,-0.70312 0.625,-1.875 0,-0.66406 -0.625,-1.52344 -0.54687,-0.70313 -1.99219,-0.70313 z"
         style="fill:url(#linearGradient3808);fill-opacity:1.0"
         id="path3789"
         inkscape:connector-curvature="0" />
      <path
         d="m 200.6095,192.20119 q 0,-2.26563 1.75782,-2.26563 1.01563,0 2.89063,2.3047 l 8.90627,10.46877 -0.42969,-10.03909 q 0,-1.75781 0.625,-2.1875 0.625,-0.50781 1.52344,-0.50781 1.36719,0 2.03126,0.54687 0.66406,0.54688 0.66406,1.48438 v 16.75785 q 0,1.95313 -1.67969,1.95313 -1.09375,0 -2.85157,-2.18751 l -8.90627,-11.01565 0.50782,10.35159 q 0,1.71875 -0.66407,2.26563 -0.70312,0.58594 -1.60156,0.58594 -1.48438,0 -2.10938,-0.58594 -0.66407,-0.54688 -0.66407,-1.60157 z"
         style="fill:url(#linearGradient3810);fill-opacity:1.0"
         id="path3791"
         inkscape:connector-curvature="0" />
      <path
         d="m 221.23455,191.7715 q 0,-0.9375 0.54687,-1.48437 0.62501,-0.54688 1.44532,-0.54688 h 7.57814 q 1.05469,0 1.60157,0.78125 0.54687,0.74219 0.54687,1.67969 0,1.05469 -0.42969,1.67969 -0.46875,0.62501 -1.32812,0.62501 l -6.25002,-0.23438 v 3.98438 l 5.85939,-0.23437 q 0.82032,0 1.28907,0.66406 0.50781,0.66407 0.50781,1.83594 0,0.93751 -0.39063,1.60157 -0.46875,0.625 -1.21094,0.625 l -6.0547,-0.19531 v 3.67188 l 5.85939,-0.27344 q 1.09375,0 1.67969,0.70313 0.58594,0.625 0.58594,1.83594 0,0.82031 -0.46875,1.40625 -0.42969,0.625 -1.13282,0.625 h -8.67189 q -0.46875,0 -1.01563,-0.54687 -0.54687,-0.42969 -0.54687,-1.05469 z"
         style="fill:url(#linearGradient3812);fill-opacity:1.0"
         id="path3793"
         inkscape:connector-curvature="0" />
      <path
         d="m 248.03148,192.47463 6.01564,15.46878 q 0.15625,0.62501 0.15625,0.89844 0,0.82032 -0.58594,1.28907 -0.58594,0.46875 -1.95313,0.46875 -1.5625,0 -2.22657,-1.36719 -0.15625,-0.27344 -0.78125,-2.53907 -0.58594,-2.30469 -0.85938,-2.92969 l -5.82032,-0.0391 q -0.0391,0.15626 -0.27344,1.32813 -0.23437,1.13282 -0.50781,2.34376 -0.27344,1.17188 -0.50782,1.71875 -0.50781,1.52344 -2.10938,1.52344 -1.5625,0 -2.1875,-0.50781 -0.625,-0.50782 -0.625,-1.32813 0,-0.35156 0.11719,-0.70313 l 5.54688,-15.62503 q 1.01563,-2.69532 3.28126,-2.69532 2.34376,0 3.32032,2.69532 z m -5.70314,9.57033 h 5.03908 l -2.50001,-6.87501 z"
         style="fill:url(#linearGradient3814);fill-opacity:1.0"
         id="path3795"
         inkscape:connector-curvature="0" />
      <path
         d="m 267.87527,191.7715 q 0,-0.9375 0.54688,-1.48437 0.625,-0.54688 1.44531,-0.54688 h 7.57815 q 1.05468,0 1.60156,0.78125 0.54688,0.74219 0.54688,1.67969 0,1.05469 -0.42969,1.67969 -0.46875,0.62501 -1.32813,0.62501 l -6.25001,-0.23438 v 3.98438 l 5.85939,-0.23437 q 0.82031,0 1.28906,0.66406 0.50781,0.66407 0.50781,1.83594 0,0.93751 -0.39062,1.60157 -0.46875,0.625 -1.21094,0.625 l -6.0547,-0.19531 v 3.67188 l 5.85939,-0.27344 q 1.09375,0 1.67969,0.70313 0.58593,0.625 0.58593,1.83594 0,0.82031 -0.46875,1.40625 -0.42968,0.625 -1.13281,0.625 h -8.67189 q -0.46876,0 -1.01563,-0.54687 -0.54688,-0.42969 -0.54688,-1.05469 z"
         style="fill:url(#linearGradient3816);fill-opacity:1.0"
         id="path3797"
         inkscape:connector-curvature="0" />
      <path
         d="m 282.40655,191.34182 q 0,-0.54688 0.46875,-1.21094 0.54687,-0.625 1.09375,-0.625 h 7.73439 q 2.30469,0 4.02345,1.91406 1.67969,1.99219 1.67969,4.29689 0,1.79687 -1.09376,3.24219 -1.21094,1.52344 -3.67188,2.38282 l 4.64845,4.68751 q 0.74219,0.85937 0.74219,1.83594 0,0.9375 -0.625,1.5625 -0.23438,0.3125 -0.78125,0.78125 -0.50782,0.46875 -0.89844,0.46875 -1.32813,0 -2.42188,-1.32812 l -6.17189,-7.57814 v 6.21095 q 0,1.13281 -0.74219,1.95313 -0.70313,0.70312 -1.71875,0.70312 -0.97657,0 -1.60157,-0.70312 -0.66406,-0.62501 -0.66406,-1.95313 z m 4.72657,2.22656 v 4.8047 h 3.47657 q 1.44531,0 1.99219,-0.70313 0.58594,-0.70312 0.625,-1.875 0,-0.66406 -0.625,-1.52344 -0.54688,-0.70313 -1.99219,-0.70313 z"
         style="fill:url(#linearGradient3818);fill-opacity:1.0"
         id="path3799"
         inkscape:connector-curvature="0" />
      <path
         d="m 300.92222,191.73244 q 0,-0.66406 0.58593,-1.25 0.54688,-0.54688 1.21094,-0.54688 h 6.40627 q 3.39844,0 5.27345,2.14845 1.64063,1.91406 1.64063,4.84376 0,2.89063 -1.56251,4.92188 -1.71875,2.22657 -4.45313,2.22657 h -4.33595 v 4.25782 q 0,1.17188 -0.74219,1.79688 -0.625,0.58594 -1.60156,0.58594 -0.97657,0 -1.71876,-0.625 -0.70312,-0.62501 -0.70312,-1.79688 z m 7.81251,2.53907 h -2.96875 v 5.82032 h 2.96875 q 2.42188,0 3.20313,-0.85937 0.62501,-0.66407 0.62501,-2.18751 0,-1.09375 -0.66407,-1.95313 -0.3125,-0.35156 -1.36719,-0.58593 -1.05469,-0.23438 -1.79688,-0.23438 z"
         style="fill:url(#linearGradient3820);fill-opacity:1.0"
         id="path3801"
         inkscape:connector-curvature="0" />
    </g>
  </g>
</svg>
